# AST/ASF file generated using VICON BodyLanguage
# -----------------------------------------------
:version 1.10
:name VICON
:units
  mass 1.0
  length 0.45
  angle deg
:documentation
   .ast/.asf automatically generated from VICON data using
   VICON BodyBuilder and BodyLanguage model FoxedUp or BRILLIANT.MOD
:root
   order TX TY TZ RX RY RZ
   axis XYZ
   position 0 0 0  
   orientation 0 0 0 
:bonedata
  begin
     id 1 
     name lhipjoint
     direction 0.611804 -0.747784 0.257906 
     length 2.29243 
     axis 0 0 0  XYZ
  end
  begin
     id 2 
     name lfemur
     direction 0.34202 -0.939693 0  
     length 7.31159  
     axis 0 0 20  XYZ
    dof rx ry rz
    limits (-160.0 20.0)
           (-70.0 70.0)
           (-60.0 70.0)
  end
  begin
     id 3 
     name ltibia
     direction 0.34202 -0.939693 0   
     length 7.33391   
     axis 0 0 20   XYZ
    dof rx
    limits (-10.0 170.0)
  end
  begin
     id 4 
     name lfoot
     direction 0.122263 -0.335914 0.933924   
     length 1.76083   
     axis -90 7.62852e-016 20   XYZ
    dof rx rz
    limits (-45.0 90.0)
           (-70.0 20.0)
  end
  begin
     id 5 
     name ltoes
     direction 1.53533e-011 -4.2177e-011 1   
     length 0.879206   
     axis -90 7.62852e-016 20   XYZ
    dof rx
    limits (-90.0 20.0)
  end
  begin
     id 6 
     name rhipjoint
     direction -0.646469 -0.721248 0.248754   
     length 2.37677  
     axis 0 0 0  XYZ 
  end
  begin
     id 7 
     name rfemur
     direction -0.34202 -0.939693 0   
     length 7.18623   
     axis 0 0 -20   XYZ
    dof rx ry rz
    limits (-160.0 20.0)
           (-70.0 70.0)
           (-70.0 60.0)
  end
  begin
     id 8 
     name rtibia
     direction -0.34202 -0.939693 0   
     length 7.36567   
     axis 0 0 -20   XYZ
    dof rx
    limits (-10.0 170.0)
 end
 begin
     id 9 
     name rfoot
     direction -0.126681 -0.348054 0.928876   
     length 1.71902  
     axis -90 -7.62852e-016 -20   XYZ
    dof rx rz
    limits (-45.0 90.0)
           (-20.0 70.0)
  end
  begin
     id 10 
     name rtoes
     direction -1.53551e-011 -4.21898e-011 1   
     length 0.857792   
     axis -90 -7.62852e-016 -20   XYZ
    dof rx
    limits (-90.0 20.0)
  end
  begin
     id 11 
     name lowerback
     direction 0.0106509 0.999778 0.0181844   
     length 2.07668   
     axis 0 0 0   XYZ
    dof rx ry rz
    limits (-20.0 45.0)
           (-30.0 30.0)
           (-30.0 30.0)
  end
  begin
     id 12 
     name upperback
     direction -0.00456018 0.999989 -0.000590935   
     length 2.08011   
     axis 0 0 0   XYZ
    dof rx ry rz
    limits (-20.0 45.0)
           (-30.0 30.0)
           (-30.0 30.0)
  end
  begin
     id 13 
     name thorax
     direction -0.00910382 0.999916 -0.00923765   
     length 2.07397   
     axis 0 0 0   XYZ
    dof rx ry rz
    limits (-20.0 45.0)
           (-30.0 30.0)
           (-30.0 30.0)
  end
  begin
     id 14 
     name lowerneck
     direction 0.00171967 0.99778 0.0665733   
     length 1.67556   
     axis 0 0 0   XYZ
    dof rx ry rz
    limits (-20.0 45.0)
           (-30.0 30.0)
           (-30.0 30.0)
  end
  begin
     id 15 
     name upperneck
     direction -0.0143166 0.991302 -0.130828   
     length 1.68462   
     axis 0 0 0   XYZ
    dof rx ry rz
    limits (-20.0 45.0)
           (-30.0 30.0)
           (-30.0 30.0)
  end
  begin
     id 16
     name head
     direction -0.00606378 0.998665 -0.0512995  
     length 1.69269  
     axis 0 0 0   XYZ
    dof rx ry rz
    limits (-20.0 45.0)
           (-30.0 30.0)
           (-30.0 30.0)
  end
  begin
     id 17 
     name lclavicle
     direction 0.9638 0.179341 0.197297  
     length 4.12888  
     axis 0 0 0   XYZ
    dof ry rz
    limits (-20.0 10.0)
           (0.0 20.0)
  end
  begin
     id 18 
     name lhumerus
     direction 1 -4.48972e-011 -2.47351e-027   
     length 5.01834   
     axis -180 -30 -90   XYZ
    dof rx ry rz
    limits (-60.0 90.0)
           (-90.0 90.0)
           (-90.0 90.0)
  end
  begin
     id 19
     name lradius
     direction 1 -4.48965e-011 1.51591e-026   
     length 3.4869   
     axis -180 -30 -90   XYZ
    dof rx
    limits (-10.0 170.0)
  end
  begin
     id 20
     name lwrist
     direction 1 -4.48957e-011 2.70032e-026   
     length 1.74345   
     axis -1.81515e-014 90 90   XYZ
    dof ry
    limits (-180.0 0.0)
 end
  begin
     id 21 
     name lhand
     direction 1 -4.48951e-011 5.40064e-026   
     length 0.76799   
     axis -3.44607e-014 90 90   XYZ
    dof rx rz
    limits (-90.0 90.0)
           (-45.0 45.0)
  end
  begin
     id 22 
     name lfingers
     direction 1 -4.48971e-011 1.08013e-025   
     length 0.619174   
     axis -6.89214e-014 90 90   XYZ
    dof rx
    limits (0.0 90.0)
  end
  begin
     id 23
     name lthumb
     direction 0.707107 -6.34931e-011 0.707107   
     length 0.889013   
     axis -90 45 2.85299e-015   XYZ
    dof rx rz
    limits (-45.0 45.0)
           (-45.0 45.0)
  end
  begin
     id 24 
     name rclavicle
     direction -0.961409 0.252588 0.109054   
     length 4.04305  
     axis 0 0 0   XYZ 
    dof ry rz
    limits (-10.0 20.0)
           (-20.0 0.0)
  end
  begin
     id 25 
     name rhumerus
     direction -1 -4.4897e-011 1.33872e-017  
     length 4.70164   
     axis -180 30 90   XYZ
    dof rx ry rz
    limits (-90.0 60.0)
           (-90.0 90.0)
           (-90.0 90.0)
  end
  begin
     id 26 
     name rradius
     direction -1 -4.48954e-011 1.83844e-026   
     length 3.49911   
     axis -180 30 90   XYZ
    dof rx
    limits (-10.0 170.0)
  end
  begin
     id 27 
     name rwrist
     direction -1 -4.49008e-011 2.70032e-026   
     length 1.74955   
     axis -1.81515e-014 -90 -90   XYZ
    dof ry
    limits (-180.0 0.0)
  end
  begin
     id 28
     name rhand
     direction -1 -4.48916e-011 5.40064e-026   
     length 0.739335   
     axis -3.44607e-014 -90 -90   XYZ
    dof rx rz
    limits (-90.0 90.0)
           (-45.0 45.0)
  end
  begin
     id 29
     name rfingers
     direction -1 -4.48987e-011 1.08013e-025   
     length 0.596071   
     axis -6.89214e-014 -90 -90   XYZ
    dof rx
    limits (0.0 90.0)
  end
  begin
     id 30
     name rthumb
     direction -0.707107 -6.34935e-011 0.707107   
     length 0.855843   
     axis -90 -45 -2.85299e-015   XYZ
    dof rx rz
    limits (-45.0 45.0)
           (-45.0 45.0)
  end
:hierarchy
  begin
    root lhipjoint rhipjoint lowerback
    lhipjoint lfemur
    lfemur ltibia
    ltibia lfoot
    lfoot ltoes
    rhipjoint rfemur
    rfemur rtibia
    rtibia rfoot
    rfoot rtoes
    lowerback upperback
    upperback thorax
    thorax lowerneck lclavicle rclavicle
    lowerneck upperneck
    upperneck head
    lclavicle lhumerus
    lhumerus lradius
    lradius lwrist
    lwrist lhand lthumb
    lhand lfingers
    rclavicle rhumerus
    rhumerus rradius
    rradius rwrist
    rwrist rhand rthumb
    rhand rfingers
  end

#!OML:ASF I:\salsa\salsa 7_09\Patient 1\Session 1\dancermale.ASF
:FULLY-SPECIFIED
:DEGREES
973
root 1.14603 16.6608 7.35712 -537.728 102.245 -540.581
lowerback -0.43856 -2.94463 2.18413
upperback -2.03958 -3.89667 0.209428
thorax -1.97779 -1.97684 -0.950469
lowerneck -4.96331 8.17067 7.57513
upperneck 9.7887 11.0354 -5.95188
head 4.49319 5.44656 -2.38498
rclavicle -4.43476e-014 -5.36719e-015
rhumerus -48.8475 7.878 -95.5886
rradius 85.0083
rwrist 0.418442
rhand 150.089 173.526
rfingers 7.12502
rthumb -3.23172 -36.4295
lclavicle -4.43476e-014 -5.36719e-015
lhumerus 15.8889 1.88674 62.7124
lradius 48.4412
lwrist -12.2661
lhand -18.5762 50.6278
lfingers 7.12502
lthumb 7.71421 440.467
rfemur -15.8849 2.71135 16.2936
rtibia 44.8696
rfoot -26.6445 -14.6564
rtoes -13.559
lfemur -31.6603 8.03258 -8.42572
ltibia 34.4094
lfoot -1.86669 3.15674
ltoes -17.2417
974
root 1.24308 16.6441 7.24939 -534.584 102.13 -537.475
lowerback -0.419529 -3.00193 1.75542
upperback -2.08497 -3.9786 0.0263328
thorax -2.02109 -2.01304 -0.895694
lowerneck -5.13998 8.15817 7.50922
upperneck 9.82575 11.0421 -6.18661
head 4.54377 5.43246 -2.43714
rclavicle 1.68408e-014 7.95139e-016
rhumerus -48.7305 7.43653 -96.0149
rradius 85.4249
rwrist 0.779451
rhand 149.828 173.629
rfingers 7.12502
rthumb -3.48382 -36.3223
lclavicle 1.68408e-014 7.95139e-016
lhumerus 17.3234 2.5171 63.6513
lradius 46.1294
lwrist -13.4503
lhand -19.016 50.1679
lfingers 7.12502
lthumb 7.28972 440.022
rfemur -17.0242 1.83182 15.0224
rtibia 47.3371
rfoot -25.3209 -14.1942
rtoes -13.9521
lfemur -31.863 8.03316 -9.73578
ltibia 35.0689
lfoot -3.11433 2.98869
ltoes -18.2363
975
root 1.32322 16.628 7.14681 -532.371 102.162 -535.273
lowerback -0.255084 -3.06322 1.51251
upperback -2.11309 -4.0621 -0.108552
thorax -2.13739 -2.05284 -0.886519
lowerneck -5.29012 8.11677 7.4857
upperneck 9.8045 10.9971 -6.36665
head 4.56784 5.39728 -2.48553
rclavicle 4.25368e-014 7.95139e-015
rhumerus -48.501 7.13057 -96.4884
rradius 85.6943
rwrist 1.19374
rhand 149.648 173.877
rfingers 7.12502
rthumb -3.65775 -36.0718
lclavicle 4.25368e-014 7.95139e-015
lhumerus 18.6727 3.82062 64.9274
lradius 43.5463
lwrist -15.6333
lhand -19.2085 49.3748
lfingers 7.12502
lthumb 7.1039 439.236
rfemur -18.6223 1.20322 14.0064
rtibia 50.4196
rfoot -23.5723 -13.5624
rtoes -13.7455
lfemur -31.9694 8.51972 -10.8776
ltibia 35.5407
lfoot -4.09773 2.82352
ltoes -16.9219
976
root 1.38833 16.6125 7.04929 -530.638 102.271 -533.494
lowerback 0.0237834 -3.11918 1.29872
upperback -2.1031 -4.13801 -0.205966
thorax -2.27757 -2.08876 -0.849541
lowerneck -5.51792 8.11795 7.62094
upperneck 9.8507 11.0216 -6.77204
head 4.65202 5.38848 -2.61659
rclavicle 1.07406e-014 5.96354e-016
rhumerus -48.1855 6.92987 -96.9522
rradius 85.9007
rwrist 1.43706
rhand 149.613 173.896
rfingers 7.12502
rthumb -3.69153 -36.052
lclavicle 1.07406e-014 5.96354e-016
lhumerus 20.0724 5.65976 66.5754
lradius 40.7848
lwrist -18.3131
lhand -19.3936 48.9839
lfingers 7.12502
lthumb 6.92517 438.851
rfemur -20.5024 0.81957 13.1119
rtibia 53.911
rfoot -21.4597 -12.7238
rtoes -11.9519
lfemur -31.9668 9.15851 -11.8828
ltibia 35.811
lfoot -4.76859 2.4445
ltoes -15.7146
977
root 1.44131 16.5952 6.9586 -529.179 102.368 -531.978
lowerback 0.304911 -3.14489 1.08116
upperback -2.07616 -4.17537 -0.307983
thorax -2.40051 -2.10497 -0.816222
lowerneck -5.64784 8.0995 7.82061
upperneck 9.86678 11.0137 -7.13857
head 4.70985 5.37004 -2.75335
rclavicle -4.94477e-015 4.17448e-015
rhumerus -47.8978 6.72831 -97.4336
rradius 86.1752
rwrist 1.55185
rhand 149.521 173.715
rfingers 7.12502
rthumb -3.78012 -36.2315
lclavicle -4.94477e-015 4.17448e-015
lhumerus 21.6175 7.65364 68.5746
lradius 38.015
lwrist -21.0095
lhand -19.302 48.5831
lfingers 7.12502
lthumb 7.01361 438.447
rfemur -22.5219 0.612414 12.3132
rtibia 57.5423
rfoot -19.0557 -11.7808
rtoes -8.46172
lfemur -32.0466 9.44086 -12.6998
ltibia 36.188
lfoot -5.32976 2.12091
ltoes -15.8433
978
root 1.48401 16.5776 6.87954 -527.919 102.355 -530.635
lowerback 0.609598 -3.19719 0.88786
upperback -2.06681 -4.24954 -0.440434
thorax -2.55973 -2.14017 -0.82393
lowerneck -5.61201 8.08023 7.7595
upperneck 9.76617 10.9748 -7.03005
head 4.66057 5.35511 -2.71736
rclavicle 2.37983e-014 8.74653e-015
rhumerus -47.7616 6.66538 -98.0313
rradius 86.6135
rwrist 1.59249
rhand 149.312 173.586
rfingers 7.12502
rthumb -3.98219 -36.3564
lclavicle 2.37983e-014 8.74653e-015
lhumerus 23.0802 9.68328 70.7729
lradius 35.5559
lwrist -23.7233
lhand -19.4887 47.9414
lfingers 7.12502
lthumb 6.83341 437.811
rfemur -24.5162 0.467696 11.6351
rtibia 61.0467
rfoot -16.6128 -11.0117
rtoes -3.37573
lfemur -32.2312 9.12623 -13.3053
ltibia 36.7549
lfoot -5.8928 2.0279
ltoes -16.657
979
root 1.51559 16.5588 6.81044 -526.883 102.194 -529.463
lowerback 0.972533 -3.34313 0.702765
upperback -2.01815 -4.44899 -0.514264
thorax -2.70986 -2.23706 -0.769106
lowerneck -5.72286 8.06764 7.41713
upperneck 9.68249 10.9382 -6.71854
head 4.61427 5.33789 -2.57035
rclavicle 1.04486e-014 -2.78299e-015
rhumerus -47.7336 7.02963 -98.6767
rradius 87.2751
rwrist 1.5393
rhand 148.961 173.486
rfingers 7.12502
rthumb -4.32071 -36.4501
lclavicle 1.04486e-014 -2.78299e-015
lhumerus 24.2857 11.7473 72.9222
lradius 33.6822
lwrist -26.381
lhand -20.2505 47.7695
lfingers 7.12502
lthumb 6.09796 437.662
rfemur -26.366 0.363397 11.1007
rtibia 64.2583
rfoot -14.4007 -10.5555
rtoes 2.63923
lfemur -32.4452 8.42468 -13.7941
ltibia 37.3912
lfoot -6.46265 2.21001
ltoes -17.7124
